HIERARCHY
ROOT Hips
{
  OFFSET 265.287 66.7526 -254.649
  CHANNELS 6 Xposition Yposition Zposition Zrotation Xrotation Yrotation
  JOINT LeftUpLeg
  {
    OFFSET 8.64259 1.95398 -2.38835
    CHANNELS 3 Zrotation Xrotation Yrotation
    JOINT LeftLeg
    {
      OFFSET 43.7702 0 0
      CHANNELS 3 Zrotation Xrotation Yrotation
      JOINT LeftFoot
      {
        OFFSET 40.6238 0 0
        CHANNELS 3 Zrotation Xrotation Yrotation
        JOINT LeftToeBase
        {
          OFFSET 12.7242 0 0
          CHANNELS 3 Zrotation Xrotation Yrotation
          End Site
          {
            OFFSET 0 0 0
          }
        }
      }
    }
  }
  JOINT RightUpLeg
  {
    OFFSET -8.2249 1.95398 -2.59336
    CHANNELS 3 Zrotation Xrotation Yrotation
    JOINT RightLeg
    {
      OFFSET 43.5653 0 0
      CHANNELS 3 Zrotation Xrotation Yrotation
      JOINT RightFoot
      {
        OFFSET 40.6238 0 0
        CHANNELS 3 Zrotation Xrotation Yrotation
        JOINT RightToeBase
        {
          OFFSET 12.7242 0 0
          CHANNELS 3 Zrotation Xrotation Yrotation
          End Site
          {
            OFFSET 0 0 0
          }
        }
      }
    }
  }
  JOINT Spine
  {
    OFFSET 0.165834 0.87714 6.61349
    CHANNELS 3 Zrotation Xrotation Yrotation
    JOINT Spine1
    {
      OFFSET 7.38963 1.71661e-005 0
      CHANNELS 3 Zrotation Xrotation Yrotation
      JOINT Spine2
      {
        OFFSET 11.9445 1.14441e-005 0
        CHANNELS 3 Zrotation Xrotation Yrotation
        JOINT Spine3
        {
          OFFSET 14.7254 4.19617e-005 0
          CHANNELS 3 Zrotation Xrotation Yrotation
          JOINT Spine4
          {
            OFFSET 10.9679 0 0
            CHANNELS 3 Zrotation Xrotation Yrotation
            JOINT RightShoulder
            {
              OFFSET 2.46616 -1.6653 3.69651
              CHANNELS 3 Zrotation Xrotation Yrotation
              JOINT RightArm
              {
                OFFSET 13.0012 0 0
                CHANNELS 3 Zrotation Xrotation Yrotation
                JOINT RightForeArm
                {
                  OFFSET 28.7848 1.52588e-005 0
                  CHANNELS 3 Zrotation Xrotation Yrotation
                  JOINT RightHand
                  {
                    OFFSET 26.5688 1.52588e-005 0
                    CHANNELS 3 Zrotation Xrotation Yrotation
                    End Site
                    {
                      OFFSET 0 0 0
                    }
                  }
                }
              }
            }
            JOINT LeftShoulder
            {
              OFFSET 2.38034 -1.29275 -3.7523
              CHANNELS 3 Zrotation Xrotation Yrotation
              JOINT LeftArm
              {
                OFFSET 16.3182 6.10351e-005 0
                CHANNELS 3 Zrotation Xrotation Yrotation
                JOINT LeftForeArm
                {
                  OFFSET 27.0901 0 0
                  CHANNELS 3 Zrotation Xrotation Yrotation
                  JOINT LeftHand
                  {
                    OFFSET 24.5451 1.52588e-005 0
                    CHANNELS 3 Zrotation Xrotation Yrotation
                    End Site
                    {
                      OFFSET 0 0 0
                    }
                  }
                }
              }
            }
            JOINT Neck
            {
              OFFSET 5.0226 -0.0266342 0
              CHANNELS 3 Zrotation Xrotation Yrotation
              JOINT Head
              {
                OFFSET 6.69364 2.86102e-005 0
                CHANNELS 3 Zrotation Xrotation Yrotation
                End Site
                {
                  OFFSET 0 0 0
                }
              }
            }
          }
        }
      }
    }
  }
}
MOTION
Frames:	10
Frame Time:	0.0416667
-213.378 94.733 189.662 93.2478 44.8118 89.9921 -173.732 0.0723774 91.0219 -9.80499 12.7388 3.12137 60.6444 2.51692 11.2501 35.2153 -1.97473 -0.352246 177.01 3.18501 89.1909 -13.4126 0.889415 -1.84253 60.8543 3.64988 18.9774 28.7726 0.329167 -2.84206 -0.172778 7.19159 -90.3511 12.4889 -0.510305 -0.642357 0.817896 -0.538081 -0.619279 -21.7163 -0.293686 -0.766027 -1.70367 -0.293654 -0.766023 101.023 -48.9188 -83.9713 31.4881 -5.17855 -4.55242 0.276665 -14.0508 -16.6075 -21.77 -1.79092 4.33496 -82.0271 -45.9839 90.2013 -33.9018 14.177 -13.3196 12.31 30.9779 -19.7353 1.96265 0.0187716 -1.48272 4.66239 0.815591 -0.435581 -9.90927 0.727551 2.74292 
-213.422 94.7233 189.704 92.623 44.9178 90.1451 -173.931 0.382307 90.7025 -9.48374 13.0797 3.04197 60.235 2.38775 11.477 35.544 -2.09759 0.0595498 176.967 3.81055 88.9375 -13.6752 0.813891 -1.86543 60.8058 3.69034 18.7473 29.1766 0.236094 -2.62965 -0.199791 7.13429 -90.35 12.6033 -0.563739 -0.633515 0.932375 -0.591099 -0.608093 -21.602 -0.347296 -0.773651 -1.58934 -0.347293 -0.773648 100.582 -48.7997 -84.6711 31.5886 -5.20518 -4.04695 -0.257237 -13.1189 -17.1202 -18.0639 -1.06412 1.69732 -81.88 -46.8757 90.5059 -32.8685 14.408 -13.4252 13.3658 33.4927 -20.8565 1.55346 -0.0204084 -1.82893 5.02544 0.776381 0.317443 -10.4055 0.5526 2.53961 
-213.452 94.7332 189.701 92.6347 44.8921 90.1136 -174.008 0.331486 90.6638 -9.35023 12.8684 3.08402 60.1627 2.36847 11.3148 35.6846 -2.1392 0.0261399 176.922 3.81179 88.8988 -13.6727 0.623725 -1.83442 60.8671 3.61254 18.5052 28.9615 0.267656 -2.58672 -0.190975 7.13003 -90.3573 12.6119 -0.549716 -0.649572 0.940871 -0.577757 -0.62476 -21.5934 -0.329098 -0.784752 -1.58073 -0.329077 -0.78475 100.34 -49.1341 -85.0419 31.277 -4.6538 -3.69112 -0.602214 -13.1644 -17.5264 -17.8518 -1.0792 1.84365 -81.844 -47.0989 90.5799 -32.7615 13.2898 -13.3255 11.7084 26.9036 -20.4345 -4.59185 -0.165947 -0.0626957 4.81092 0.531363 0.14338 -9.84691 0.332269 2.95688 
-213.468 94.7235 189.683 92.6684 45.0011 90.1146 -173.988 0.419754 90.6759 -9.5828 12.8455 3.07306 60.3453 2.43273 11.2377 35.6168 -2.11665 -0.00828144 176.873 3.75079 88.8722 -13.6054 0.787257 -1.79245 60.8273 3.65941 18.7697 28.9919 0.273905 -2.68688 -0.181972 7.10833 -90.3621 12.6553 -0.534251 -0.660712 0.984262 -0.562822 -0.636568 -21.5499 -0.310992 -0.790723 -1.53726 -0.31098 -0.790725 100.474 -49.0146 -84.8344 31.3002 -4.71265 -3.58938 -0.437322 -13.0586 -17.2953 -18.0482 -1.08617 1.80956 -81.9435 -47.2788 90.4378 -32.4168 13.3787 -13.4303 11.589 27.4227 -20.1614 -4.64499 -0.166389 -0.354195 4.19455 0.290501 0.0670878 -9.40943 0.115428 3.04687 
-213.427 94.7406 189.68 92.7532 45.0585 90.0293 -173.976 0.267228 90.6857 -9.44333 13.0257 3.07615 60.2177 2.39393 11.2738 35.6071 -2.11644 0.0485931 176.882 3.69869 88.8708 -13.679 1.05387 -1.82374 60.8487 3.68198 19.0373 28.989 0.284157 -2.7724 -0.176307 7.09435 -90.3497 12.6833 -0.517112 -0.637843 1.01234 -0.544699 -0.614471 -21.5219 -0.301535 -0.763764 -1.50926 -0.301509 -0.763763 100.505 -48.9698 -84.7869 31.4024 -4.69009 -3.37927 -0.307705 -12.7176 -17.2366 -18.1569 -1.13975 2.11158 -82.0525 -47.1802 90.2588 -32.4193 13.869 -13.3955 12.4558 31.025 -20.2489 -1.46015 -0.0733506 -2.21308 4.03276 0.149927 0.108145 -9.58771 -0.0153247 2.6827 
-213.388 94.7473 189.658 92.7728 44.9498 90.0042 -173.904 0.106201 90.6891 -9.20527 13.2127 3.01246 60.1251 2.41186 11.6186 35.5395 -2.09508 0.0360825 176.924 3.69926 88.908 -13.7316 0.565061 -1.8548 60.8548 3.59032 18.3639 29.2911 0.217129 -2.63223 -0.153481 7.08808 -90.3509 12.696 -0.472492 -0.645579 1.02498 -0.500446 -0.624165 -21.5092 -0.256622 -0.757732 -1.49651 -0.256623 -0.757729 100.637 -48.9606 -84.5801 31.2887 -4.58635 -3.26665 -0.485677 -12.9427 -17.3958 -17.6214 -1.12465 2.24023 -82.175 -47.1929 90.0681 -32.4859 13.618 -13.2391 12.2594 30.4243 -20.0943 -2.2287 -0.0938553 -2.18176 4.81423 0.173373 0.585311 -10.8307 -0.0539735 1.82747 
-213.368 94.7319 189.627 92.7403 44.8126 90.0968 -173.91 0.152862 90.7324 -9.33197 12.9135 3.05252 60.3562 2.47002 11.3957 35.3473 -2.04069 0.131734 176.944 3.67342 88.9683 -13.6309 0.417332 -1.83185 60.7238 3.59905 18.2427 29.4909 0.159015 -2.41136 -0.142149 7.07908 -90.3487 12.7141 -0.448967 -0.643817 1.04304 -0.476846 -0.623448 -21.4911 -0.234705 -0.748973 -1.4784 -0.234708 -0.748983 100.593 -48.8856 -84.6508 31.3317 -4.38974 -3.22043 -0.648143 -13.4093 -17.3276 -17.8002 -1.11602 2.10756 -82.1438 -47.0971 90.109 -32.6706 13.0878 -13.1303 11.3998 27.7493 -19.5839 -4.45682 -0.155189 -0.674354 4.69128 0.236958 0.467082 -10.885 0.0325582 1.79661 
-213.341 94.7503 189.605 92.8399 44.6217 90.0564 -173.796 -0.0295067 90.8024 -9.1232 12.7197 2.98448 60.3097 2.45864 11.4071 35.4851 -2.06904 -0.14928 176.927 3.58465 88.974 -13.5938 0.152805 -1.81454 60.6433 3.61032 18.1669 29.4156 0.165839 -2.35798 -0.11016 7.08166 -90.3515 12.709 -0.386723 -0.65683 1.03798 -0.415252 -0.639178 -21.496 -0.17144 -0.742686 -1.48333 -0.171438 -0.742686 100.604 -48.9503 -84.6317 31.1502 -4.40145 -3.2157 -0.599788 -13.2114 -17.2334 -17.5929 -1.10344 2.11233 -82.1889 -47.1576 90.0434 -32.5188 13.2861 -13.1465 11.2845 27.8489 -19.465 -4.26023 -0.154411 -0.491929 4.53424 0.175469 0.756913 -10.8475 -0.0459755 1.28589 
-213.372 94.7567 189.606 92.807 44.7328 90.0732 -173.823 -0.0301307 90.7669 -9.07087 13.0596 2.99393 60.1464 2.43384 11.6659 35.5401 -2.09457 0.0235436 176.874 3.60518 88.9349 -13.5688 0.238774 -1.77251 60.645 3.60253 18.2212 29.3398 0.185618 -2.42266 -0.123966 7.0738 -90.3512 12.7247 -0.414044 -0.652931 1.05364 -0.44239 -0.634079 -21.4804 -0.198683 -0.747182 -1.46772 -0.198674 -0.747178 100.499 -49.1702 -84.7898 30.8073 -4.45187 -3.22164 -0.462946 -13.0647 -17.2186 -17.8524 -1.15122 2.31583 -82.2504 -47.2674 89.9561 -32.3746 13.1719 -13.076 11.5183 28.1276 -19.7234 -4.77045 -0.17477 -0.346859 4.67722 0.0665371 0.568013 -11.1594 -0.141538 1.54958 
-213.395 94.7385 189.627 92.7468 44.8086 90.1237 -173.883 0.191641 90.7579 -9.3912 12.8888 3.04246 60.2906 2.43158 11.3948 35.553 -2.10206 0.0954723 176.941 3.68998 88.9656 -13.6794 0.56165 -1.83135 60.7934 3.6147 18.5091 29.2422 0.216884 -2.55664 -0.132692 7.0642 -90.359 12.7438 -0.435111 -0.665965 1.07273 -0.46401 -0.646174 -21.4613 -0.214867 -0.765941 -1.44861 -0.214863 -0.765947 100.421 -49.0592 -84.9169 30.8648 -4.37621 -3.18502 -0.598487 -13.1649 -17.3077 -17.4197 -1.08769 2.0817 -82.3325 -47.5024 89.8476 -32.0988 13.3779 -13.0655 11.2781 27.9612 -19.5267 -3.75317 -0.139295 -0.326678 4.37407 0.126918 0.643494 -10.752 -0.096566 1.67833 
